<svg width="113" height="38" viewBox="0 0 113 38" fill="none" xmlns="http://www.w3.org/2000/svg">
    <path d="M4.198 32.3215L8.8558 5.97128H16.3428L11.6843 32.3215H4.198Z" fill="#232323"/>
    <path d="M109.56 5.97128H85.8239L84.7456 11.9933H92.8511L89.2202 32.3215H96.7842L100.415 11.9933H108.483L109.56 5.97128Z" fill="#232323"/>
    <path d="M78.8743 12.0082L79.9343 6.07135H57.8905L56.8359 12.0082H78.8743Z" fill="#B72C30"/>
    <path d="M76.7286 26.386H54.6882L53.6316 32.3215H75.672L76.7286 26.386Z" fill="#B72C30"/>
    <path d="M77.391 22.2422L78.4483 16.3088H56.4086L55.3513 22.2422H77.391Z" fill="#B72C30"/>
    <path d="M42.3036 5.97128L34.2792 20.5466L30.843 5.97128H21.9005L17.2725 32.3215H24.8601L27.7731 16.0749L30.7801 32.3215H33.808L42.9884 16.0343L40.07 32.3215H47.6611L52.3824 5.97128H42.3036Z" fill="#232323"/>
</svg>
